<svg width="15" height="32" viewBox="0 0 15 32" fill="none" xmlns="http://www.w3.org/2000/svg">
<path d="M14.9884 15.7127C14.9355 15.0834 14.7141 14.4883 14.3549 14.0094L4.75021 1.14722C4.29835 0.499956 3.63691 0.0911024 2.91751 0.0133607C2.19803 -0.0639687 1.48233 0.196645 0.933302 0.736244C0.384301 1.27542 0.0493202 2.0474 0.00502205 2.87502C-0.0392694 3.703 0.210857 4.51604 0.698438 5.12863L8.81925 16L0.698438 26.8714C0.21122 27.484 -0.0389032 28.297 0.00539494 29.125C0.0493155 29.9525 0.384301 30.7246 0.933302 31.2638C1.4823 31.8034 2.1984 32.064 2.91789 31.9866C3.63736 31.9089 4.29837 31.5 4.75021 30.8528L14.3549 17.9906C14.8265 17.3613 15.055 16.5393 14.9888 15.7131L14.9884 15.7127Z" fill="white"/>
</svg>
