<svg width="25" height="25" viewBox="0 0 25 25" fill="none" xmlns="http://www.w3.org/2000/svg">
<path fill-rule="evenodd" clip-rule="evenodd" d="M12.4746 0.000533852C12.237 0.0111332 12.0309 0.175529 11.9577 0.412869L9.28168 9.11127L0.56921 9.09319C0.32269 9.09277 0.103915 9.25925 0.0278136 9.50511C-0.0482823 9.75097 0.0353441 10.0203 0.234896 10.172L7.29457 15.5297L4.58383 24.2191L4.58402 24.2189C4.50734 24.4647 4.59056 24.7341 4.79012 24.8862C4.98947 25.0381 5.25957 25.0379 5.45875 24.8856L12.4986 19.4976L19.5411 24.8856V24.8854C19.7402 25.0377 20.0103 25.0379 20.2099 24.886C20.4092 24.7339 20.4925 24.4643 20.4158 24.2187L17.705 15.5293L24.7647 10.1716L24.7649 10.1718C24.9647 10.0201 25.0483 9.75075 24.9722 9.50469C24.8959 9.25883 24.6773 9.09235 24.4306 9.09298L15.7181 9.11106L13.0391 0.412656C12.9606 0.157854 12.7297 -0.0106927 12.4747 0.000528169L12.4746 0.000533852Z" fill="#FFE600"/>
</svg>
